<?xml version="1.0" encoding="UTF-8" standalone="no"?>
<!DOCTYPE svg PUBLIC "-//W3C//DTD SVG 1.1//EN"
 "http://www.w3.org/Graphics/SVG/1.1/DTD/svg11.dtd">
<!-- Generated by graphviz version 2.43.0 (0)
 -->
<!-- Title: dependencies Pages: 1 -->
<svg width="347pt" height="260pt"
 viewBox="0.00 0.00 347.00 260.00" xmlns="http://www.w3.org/2000/svg" xmlns:xlink="http://www.w3.org/1999/xlink">
<g id="graph0" class="graph" transform="scale(1 1) rotate(0) translate(4 256)">
<title>dependencies</title>
<polygon fill="white" stroke="transparent" points="-4,4 -4,-256 343,-256 343,4 -4,4"/>
<!-- mcp&#45;media&#45;forge -->
<g id="node1" class="node">
<title>mcp&#45;media&#45;forge</title>
<polygon fill="lightblue" stroke="black" points="112,-144 0,-144 0,-108 112,-108 112,-144"/>
<text text-anchor="middle" x="56" y="-122.3" font-family="Times,serif" font-size="14.00">mcp&#45;media&#45;forge</text>
</g>
<!-- @modelcontextprotocol/sdk -->
<g id="node2" class="node">
<title>@modelcontextprotocol/sdk</title>
<polygon fill="lightblue" stroke="black" points="339,-252 168,-252 168,-216 339,-216 339,-252"/>
<text text-anchor="middle" x="253.5" y="-230.3" font-family="Times,serif" font-size="14.00">@modelcontextprotocol/sdk</text>
</g>
<!-- mcp&#45;media&#45;forge&#45;&gt;@modelcontextprotocol/sdk -->
<g id="edge1" class="edge">
<title>mcp&#45;media&#45;forge&#45;&gt;@modelcontextprotocol/sdk</title>
<path fill="none" stroke="black" d="M77.36,-144C98.68,-162.06 133.75,-189.61 168,-207 171.53,-208.79 175.2,-210.5 178.95,-212.11"/>
<polygon fill="black" stroke="black" points="177.82,-215.43 188.4,-215.95 180.45,-208.94 177.82,-215.43"/>
</g>
<!-- zod -->
<g id="node3" class="node">
<title>zod</title>
<polygon fill="lightblue" stroke="black" points="280.5,-198 226.5,-198 226.5,-162 280.5,-162 280.5,-198"/>
<text text-anchor="middle" x="253.5" y="-176.3" font-family="Times,serif" font-size="14.00">zod</text>
</g>
<!-- mcp&#45;media&#45;forge&#45;&gt;zod -->
<g id="edge2" class="edge">
<title>mcp&#45;media&#45;forge&#45;&gt;zod</title>
<path fill="none" stroke="black" d="M112.24,-141.26C145.67,-150.49 187.34,-162 216.54,-170.07"/>
<polygon fill="black" stroke="black" points="215.75,-173.48 226.32,-172.77 217.61,-166.73 215.75,-173.48"/>
</g>
<!-- tsup -->
<g id="node4" class="node">
<title>tsup</title>
<polygon fill="lightblue" stroke="black" points="280.5,-144 226.5,-144 226.5,-108 280.5,-108 280.5,-144"/>
<text text-anchor="middle" x="253.5" y="-122.3" font-family="Times,serif" font-size="14.00">tsup</text>
</g>
<!-- mcp&#45;media&#45;forge&#45;&gt;tsup -->
<g id="edge3" class="edge">
<title>mcp&#45;media&#45;forge&#45;&gt;tsup</title>
<path fill="none" stroke="black" stroke-dasharray="5,2" d="M112.24,-126C145.53,-126 186.98,-126 216.16,-126"/>
<polygon fill="black" stroke="black" points="216.32,-129.5 226.32,-126 216.32,-122.5 216.32,-129.5"/>
<text text-anchor="middle" x="140" y="-129.8" font-family="Times,serif" font-size="14.00">dev</text>
</g>
<!-- vitest -->
<g id="node5" class="node">
<title>vitest</title>
<polygon fill="lightblue" stroke="black" points="280.5,-90 226.5,-90 226.5,-54 280.5,-54 280.5,-90"/>
<text text-anchor="middle" x="253.5" y="-68.3" font-family="Times,serif" font-size="14.00">vitest</text>
</g>
<!-- mcp&#45;media&#45;forge&#45;&gt;vitest -->
<g id="edge4" class="edge">
<title>mcp&#45;media&#45;forge&#45;&gt;vitest</title>
<path fill="none" stroke="black" stroke-dasharray="5,2" d="M112.24,-110.74C145.67,-101.51 187.34,-90 216.54,-81.93"/>
<polygon fill="black" stroke="black" points="217.61,-85.27 226.32,-79.23 215.75,-78.52 217.61,-85.27"/>
<text text-anchor="middle" x="140" y="-108.8" font-family="Times,serif" font-size="14.00">dev</text>
</g>
<!-- typescript -->
<g id="node6" class="node">
<title>typescript</title>
<polygon fill="lightblue" stroke="black" points="288.5,-36 218.5,-36 218.5,0 288.5,0 288.5,-36"/>
<text text-anchor="middle" x="253.5" y="-14.3" font-family="Times,serif" font-size="14.00">typescript</text>
</g>
<!-- mcp&#45;media&#45;forge&#45;&gt;typescript -->
<g id="edge5" class="edge">
<title>mcp&#45;media&#45;forge&#45;&gt;typescript</title>
<path fill="none" stroke="black" stroke-dasharray="5,2" d="M77.36,-108C98.68,-89.94 133.75,-62.39 168,-45 180.58,-38.61 194.99,-33.34 208.29,-29.2"/>
<polygon fill="black" stroke="black" points="209.62,-32.45 218.21,-26.25 207.62,-25.74 209.62,-32.45"/>
<text text-anchor="middle" x="140" y="-69.8" font-family="Times,serif" font-size="14.00">dev</text>
</g>
</g>
</svg>
